<svg width="140" height="28" viewBox="0 0 140 28" fill="none" xmlns="http://www.w3.org/2000/svg">
<path d="M111.941 0.14856V2.21032C111.941 3.20637 112.747 4.01436 113.741 4.01436H123.122V27.8117H127.501V7.10004C127.109 5.30993 125.993 4.01436 124.676 4.01436H127.501H127.654H138.481C139.319 4.01436 140 3.33175 140 2.49242V0.14856H111.941Z" fill="white"/>
<path d="M0 0.14856V2.00136C0 3.11234 0.900198 4.01436 2.00893 4.01436H12.4568V27.8117H16.8361V7.10004C16.4434 5.30993 15.3277 4.01436 14.0104 4.01436H16.8361H16.9891H27.8158C28.6534 4.01436 29.3346 3.33175 29.3346 2.49242V0.14856H0Z" fill="white"/>
<path d="M98.2538 27.9893C96.3422 28.031 94.5209 27.9509 92.7866 27.7489C91.0522 27.5504 89.5125 27.1673 88.1674 26.6066C86.8189 26.0459 85.7553 25.2205 84.9733 24.1339C84.1913 23.0473 83.7811 21.6403 83.7464 19.9094C83.7429 19.7805 83.7464 19.6621 83.7603 19.5541C83.7707 19.4497 83.7777 19.3696 83.7742 19.3173C83.7742 19.3173 87.5175 20.1323 87.5244 20.3691C87.5453 21.3129 88.435 22.0269 89.2484 22.6677C90.0617 23.3085 91.2225 23.7682 92.7344 24.0503C94.2464 24.3324 96.0363 24.4543 98.1044 24.409C99.0463 24.3881 99.9743 24.3254 100.888 24.214C101.802 24.1026 102.664 23.9389 103.471 23.7264C104.277 23.514 104.993 23.2354 105.615 22.8941C106.237 22.5527 106.721 22.1418 107.061 21.6612C107.405 21.1806 107.569 20.6268 107.558 19.9964C107.541 19.1049 107.204 18.3979 106.55 17.872C105.897 17.3496 105.024 16.9317 103.93 16.6287C102.835 16.3222 101.601 16.0749 100.221 15.8799C98.8412 15.6849 97.4301 15.4933 95.9842 15.2983C94.5383 15.1067 93.1341 14.8455 91.7647 14.5216C90.3953 14.1943 89.1545 13.7624 88.0458 13.2226C86.9336 12.6828 86.0473 11.9723 85.3869 11.0947C84.7265 10.217 84.3824 9.09558 84.3546 7.73036C84.3303 6.6542 84.5736 5.65815 85.0776 4.74219C85.5815 3.82624 86.3705 3.02174 87.4445 2.32868C88.515 1.63562 89.8948 1.08884 91.5736 0.688326C93.2558 0.284332 95.2717 0.0579576 97.6282 0.00919977C100.037 -0.0430408 102.063 0.127613 103.707 0.51071C105.351 0.89729 106.672 1.42666 107.669 2.09882C108.667 2.77447 109.397 3.55111 109.859 4.43572C110.321 5.31684 110.565 6.21886 110.582 7.13481L110.599 7.8836L107.103 7.95673C106.714 7.9637 106.39 7.65374 106.38 7.26367C106.366 6.55669 106.025 5.92631 105.358 5.37605C104.691 4.82578 103.738 4.37999 102.501 4.03869C101.264 3.69738 99.7796 3.54415 98.0522 3.58246C95.9321 3.62773 94.1873 3.8158 92.8179 4.14665C91.4484 4.47751 90.4231 4.92678 89.7419 5.49098C89.0607 6.05518 88.727 6.72037 88.7409 7.4796C88.7583 8.24231 89.092 8.85527 89.7419 9.32892C90.3919 9.80257 91.2712 10.1683 92.3765 10.4329C93.4817 10.6976 94.7191 10.9275 96.085 11.1225C97.4509 11.3175 98.8551 11.5161 100.301 11.7215C101.747 11.927 103.158 12.1882 104.541 12.4982C105.921 12.8116 107.162 13.2504 108.26 13.8181C109.359 14.3858 110.238 15.1137 110.898 16.0053C111.559 16.8968 111.903 18.0113 111.931 19.3487C111.972 21.3965 111.427 23.0473 110.287 24.3046C109.147 25.5618 107.537 26.4743 105.452 27.0454C103.377 27.6201 100.975 27.9335 98.2538 27.9893Z" fill="white"/>
<path d="M35.869 27.7594L26.2449 0.14856H28.7439C30.0542 0.14856 31.2186 0.98789 31.6391 2.23122L37.3149 19.0771C37.4226 19.3975 37.5547 19.8189 37.7146 20.3448C37.8745 20.8672 38.0413 21.4105 38.2151 21.9712C38.3889 22.5354 38.5279 23.0299 38.6356 23.4583H38.9554C39.0353 23.1379 39.1292 22.7827 39.2369 22.3926C39.3447 22.006 39.4524 21.609 39.5567 21.2085C39.6644 20.808 39.7756 20.4179 39.8973 20.0418C40.0189 19.6656 40.1163 19.3452 40.1962 19.0771L45.931 0.14856H50.5954C51.4226 0.14856 52.1525 0.68838 52.3958 1.48244L57.7657 19.0771C57.8734 19.3975 57.9986 19.8189 58.148 20.3448C58.294 20.8672 58.4469 21.4105 58.6103 21.9712C58.7702 22.5354 58.8918 23.0299 58.9717 23.4583H59.2915C59.3993 23.1379 59.507 22.7757 59.6113 22.3717C59.719 21.9712 59.8441 21.5672 59.9936 21.1667C60.1396 20.7662 60.2682 20.3831 60.3759 20.0209C60.4837 19.6587 60.5914 19.3452 60.6957 19.0771L66.295 2.35311C66.7364 1.03665 67.9668 0.14856 69.3536 0.14856H71.3243L61.6584 27.7594H56.0835L50.147 8.67074C50.0393 8.35033 49.9142 7.93589 49.7647 7.42393C49.6187 6.91546 49.4693 6.38609 49.3233 5.83582C49.1773 5.28555 49.0487 4.79797 48.941 4.3696H48.6594C48.5517 4.79797 48.4266 5.28903 48.2771 5.83582C48.1311 6.38609 47.9817 6.91546 47.8357 7.42393C47.6897 7.9324 47.5611 8.34685 47.4534 8.67074L41.5969 27.7594H35.869Z" fill="white"/>
<path d="M75.332 27.7594V0.14856H77.692C78.7799 0.14856 79.6627 1.03317 79.6627 2.12325V27.756H75.332V27.7594Z" fill="white"/>
</svg>
