<svg width="24" height="20" viewBox="0 0 24 20" fill="none" xmlns="http://www.w3.org/2000/svg">
<mask id="mask0_117_81" style="mask-type:luminance" maskUnits="userSpaceOnUse" x="0" y="0" width="24" height="20">
<path fill-rule="evenodd" clip-rule="evenodd" d="M0 0H23.6664V20H0V0Z" fill="white"/>
</mask>
<g mask="url(#mask0_117_81)">
<path fill-rule="evenodd" clip-rule="evenodd" d="M23.6664 1.60691C23.5421 2.16614 23.4126 2.72425 23.2943 3.2848C22.5295 6.90972 21.7672 10.5352 21.0038 14.1604C20.675 15.7217 20.3486 17.2836 20.0121 18.8431C19.9684 19.0458 19.8905 19.2471 19.7943 19.4307C19.5371 19.9213 19.1136 20.1063 18.5923 19.9407C18.3546 19.8652 18.1152 19.7548 17.9144 19.6072C16.2135 18.3573 14.5214 17.095 12.8265 15.8366C12.7652 15.7911 12.7023 15.7476 12.6291 15.6953C12.5729 15.744 12.5197 15.7858 12.4712 15.8326C11.5962 16.6782 10.7211 17.5237 9.84758 18.371C9.58732 18.6233 9.29116 18.7752 8.90192 18.7524C8.93413 18.2643 8.9637 17.7919 8.99684 17.3198C9.06626 16.3312 9.13747 15.3428 9.20818 14.3543C9.21933 14.1987 9.25937 14.0393 9.23923 13.8882C9.16309 13.3182 9.47903 12.9878 9.86495 12.639C13.0025 9.80237 16.1249 6.94859 19.2518 4.09987C19.2976 4.05812 19.3571 4.02294 19.3841 3.97082C19.4336 3.87521 19.4637 3.76923 19.502 3.66756C19.3964 3.6375 19.2796 3.56288 19.1876 3.58663C18.9978 3.63543 18.8076 3.71455 18.6414 3.81985C14.5657 6.40129 10.493 8.98755 6.42073 11.5746C6.30634 11.6472 6.20816 11.6874 6.06131 11.6404C4.33366 11.0872 2.60213 10.5467 0.874599 9.99303C0.665596 9.92604 0.457578 9.82593 0.278758 9.69838C-0.0573844 9.45867 -0.0978545 9.10772 0.202869 8.82432C0.423145 8.61672 0.689866 8.4325 0.968229 8.32033C2.42374 7.73373 3.88916 7.17255 5.35182 6.6042C10.9083 4.44538 16.4648 2.2865 22.0229 0.131997C22.1997 0.063444 22.3925 0.0183255 22.581 0.00364008C23.081 -0.0352294 23.4519 0.239169 23.6047 0.732036C23.6227 0.79009 23.6457 0.846645 23.6664 0.903887V1.60691Z" fill="white" fill-opacity="0.2"/>
</g>
</svg>
