<svg width="29" height="20" viewBox="0 0 29 20" fill="none" xmlns="http://www.w3.org/2000/svg">
<path fill-rule="evenodd" clip-rule="evenodd" d="M11.5211 4.00158C12.8422 4.9045 14.2076 5.89547 15.519 6.84921C16.8433 7.81359 18.1871 8.74133 19.473 9.67439C17.1676 11.1606 14.8525 12.5935 12.5157 14.0584C12.1876 14.2629 11.8757 14.5116 11.5211 14.6682V4.00158ZM0.925289 5.53706V14.5464C0.925289 15.6062 0.872439 16.6079 1.1229 17.3496C1.37221 18.086 1.82258 18.6787 2.35395 19.1086C2.90484 19.5524 3.54421 19.8765 4.48515 19.9538C5.37096 20.0254 6.40841 19.9765 7.42921 19.9765H22.2592C23.2565 19.9765 24.2663 20.0422 25.2257 19.9538C26.9226 19.7973 28.091 18.7165 28.5431 17.3065C28.7884 16.5422 28.7407 15.5405 28.7407 14.5027V5.49227C28.7407 4.42427 28.8114 3.50403 28.5431 2.68849C28.3041 1.96195 27.8865 1.36455 27.3356 0.909084C26.7956 0.462924 26.1706 0.120304 25.2257 0.0411938C24.2933 -0.0355901 23.2513 0.0185076 22.2816 0.0185076H7.45104C6.47103 0.0185076 5.34051 -0.033845 4.4415 0.0411938C2.77215 0.180801 1.52559 1.31045 1.10164 2.71118C0.86095 3.50403 0.925289 4.52025 0.925289 5.53706Z" fill="white" fill-opacity="0.2"/>
</svg>
