<svg width="28" height="16" viewBox="0 0 28 16" fill="none" xmlns="http://www.w3.org/2000/svg">
<mask id="mask0_117_87" style="mask-type:luminance" maskUnits="userSpaceOnUse" x="0" y="0" width="28" height="16">
<path fill-rule="evenodd" clip-rule="evenodd" d="M0.0498047 0H27.6164V16H0.0498047V0Z" fill="white"/>
</mask>
<g mask="url(#mask0_117_87)">
<path fill-rule="evenodd" clip-rule="evenodd" d="M9.15708 1.1116C9.35484 0.668386 9.66908 0.393172 10.0779 0.291088C10.5733 0.167398 11.085 0.082069 11.5939 0.0497502C12.7887 -0.0261487 13.986 -0.0451921 15.1672 0.213999C15.8214 0.357557 16.1483 0.71279 16.1596 1.40183C16.1781 2.52182 16.1388 3.64272 16.1349 4.76326C16.1326 5.43701 16.1511 6.11086 16.1604 6.78461C16.1607 6.8075 16.1624 6.83057 16.1664 6.853C16.2354 7.24348 16.322 7.66344 16.7212 7.80682C17.1014 7.94332 17.371 7.62352 17.6043 7.36827C18.6995 6.17055 19.4943 4.76766 20.1927 3.30562C20.4813 2.70136 20.7265 2.07503 20.9833 1.45521C21.2145 0.897089 21.4706 0.711508 22.0549 0.707205C23.5091 0.696493 24.9633 0.686696 26.4176 0.676534C27.58 0.668386 27.8645 1.08331 27.4118 2.1795C26.8894 3.44432 26.0715 4.52321 25.2776 5.61417C24.7236 6.37554 24.1441 7.11787 23.6022 7.88793C22.8571 8.94704 22.9013 9.32681 23.7974 10.2569C24.7465 11.2419 25.7092 12.2143 26.6276 13.2286C26.9562 13.5916 27.2009 14.0453 27.4331 14.4856C27.7708 15.1263 27.5562 15.6235 26.8746 15.8396C26.6646 15.9062 26.4366 15.9375 26.216 15.942C24.9523 15.9683 23.6884 15.9885 22.4243 15.9969C21.654 16.0021 21.0117 15.6458 20.4736 15.128C19.9048 14.5804 19.3952 13.9689 18.8513 13.3935C18.5799 13.1064 18.3094 12.8122 18.0039 12.566C17.3999 12.0795 16.84 12.1924 16.5517 12.9241C16.343 13.4534 16.2245 14.0421 16.183 14.6133C16.1069 15.6609 15.8109 15.9869 14.782 15.9968C13.5508 16.0086 12.326 16.0079 11.1287 15.6311C9.02601 14.9692 7.35975 13.678 5.98033 11.9622C3.97951 9.47348 2.46777 6.6763 1.07608 3.80478C0.758979 3.15053 0.459245 2.48703 0.16909 1.81969C-0.114082 1.16809 0.11054 0.785118 0.804279 0.766898C2.05657 0.733939 3.30958 0.726706 4.56223 0.713339C5.24863 0.706015 5.69796 1.00302 5.97093 1.68785C6.71086 3.54504 7.64122 5.30215 8.82709 6.90628C9.04025 7.19468 9.29746 7.46312 9.57812 7.68212C9.99254 8.0054 10.3931 7.88885 10.5629 7.3864C10.6998 6.98127 10.8126 6.54583 10.8212 6.12148C10.8436 5.01476 10.8698 3.90027 10.7685 2.80115C10.6676 1.70598 10.3189 1.41254 9.15708 1.1116Z" fill="white" fill-opacity="0.2"/>
</g>
</svg>
