<svg width="156" height="80" viewBox="0 0 156 80" fill="none" xmlns="http://www.w3.org/2000/svg">
<path d="M42.9736 11.4343L97.4658 11.8113C97.4658 11.8113 101.654 11.9369 101.654 13.6542C101.654 15.3715 99.0155 17.4239 99.0155 17.4239C99.0155 17.4239 100.398 13.361 95.1202 12.9422C91.7695 12.6071 42.9736 11.4343 42.9736 11.4343Z" fill="white"/>
<path d="M25.968 0L102.115 0.376963C102.115 0.376963 105.884 0.502618 105.884 2.2199C105.884 3.93717 103.497 5.98953 103.497 5.98953C103.497 5.98953 104.963 1.96859 100.188 1.54974C97.1722 1.25654 25.968 0 25.968 0Z" fill="white"/>
<path d="M58.4297 22.7018L92.2307 23.0787C92.2307 23.0787 96.126 23.2044 96.126 24.9217C96.126 26.639 93.6548 28.7332 93.6548 28.7332C93.6548 28.7332 95.2465 24.6704 90.3459 24.2096C87.2465 23.8746 58.4297 22.7018 58.4297 22.7018Z" fill="white"/>
<path d="M124.583 32.8348V35.1171C124.583 36.2196 125.481 37.1141 126.587 37.1141H137.028V63.4566H141.901V40.5298C141.464 38.5482 140.223 37.1141 138.757 37.1141H141.901H142.072H154.121C155.053 37.1141 155.812 36.3584 155.812 35.4293V32.8348H124.583Z" fill="white"/>
<path d="M0 32.8348V34.8857C0 36.1156 1.00187 37.1141 2.23582 37.1141H13.8637V63.4566H18.7376V40.5298C18.3005 38.5482 17.0588 37.1141 15.5927 37.1141H18.7376H18.9078H30.9573C31.8895 37.1141 32.6477 36.3584 32.6477 35.4293V32.8348H0Z" fill="white"/>
<path d="M109.35 63.6532C107.223 63.6995 105.196 63.6108 103.266 63.3872C101.335 63.1675 99.6219 62.7434 98.1249 62.1227C96.624 61.502 95.4403 60.5883 94.57 59.3855C93.6996 58.1827 93.2432 56.6252 93.2045 54.7092C93.2007 54.5665 93.2045 54.4354 93.22 54.3159C93.2316 54.2003 93.2393 54.1116 93.2355 54.0538C93.2355 54.0538 97.4015 54.9559 97.4093 55.218C97.4325 56.2628 98.4227 57.0531 99.3279 57.7625C100.233 58.4718 101.525 58.9807 103.208 59.293C104.89 59.6053 106.883 59.7402 109.184 59.6901C110.232 59.6669 111.265 59.5975 112.283 59.4742C113.3 59.3508 114.259 59.1696 115.157 58.9345C116.054 58.6993 116.851 58.3909 117.543 58.0131C118.236 57.6352 118.773 57.1803 119.152 56.6483C119.535 56.1163 119.717 55.5033 119.706 54.8055C119.686 53.8186 119.311 53.036 118.584 52.4539C117.857 51.8756 116.886 51.413 115.667 51.0776C114.449 50.7383 113.076 50.4646 111.54 50.2487C110.004 50.0328 108.434 49.8208 106.824 49.6049C105.215 49.3928 103.653 49.1037 102.128 48.7452C100.604 48.3828 99.2235 47.9047 97.9895 47.3072C96.7517 46.7096 95.7653 45.9231 95.0303 44.9516C94.2954 43.9801 93.9124 42.7388 93.8815 41.2275C93.8544 40.0363 94.1252 38.9337 94.686 37.9197C95.2469 36.9058 96.125 36.0153 97.3203 35.2481C98.5117 34.4809 100.047 33.8756 101.916 33.4323C103.788 32.9851 106.032 32.7345 108.654 32.6805C111.335 32.6227 113.59 32.8116 115.42 33.2357C117.249 33.6636 118.719 34.2496 119.829 34.9937C120.94 35.7416 121.752 36.6013 122.266 37.5805C122.781 38.5559 123.052 39.5544 123.071 40.5683L123.09 41.3971L119.199 41.4781C118.766 41.4858 118.406 41.1427 118.394 40.7109C118.379 39.9283 118 39.2305 117.257 38.6214C116.514 38.0123 115.454 37.5188 114.077 37.141C112.7 36.7632 111.049 36.5936 109.126 36.636C106.766 36.6861 104.825 36.8943 103.301 37.2605C101.776 37.6268 100.635 38.1241 99.8772 38.7486C99.119 39.3732 98.7477 40.1095 98.7631 40.9499C98.7825 41.7942 99.1538 42.4727 99.8772 42.9971C100.601 43.5214 101.579 43.9262 102.809 44.2191C104.039 44.5121 105.416 44.7666 106.937 44.9825C108.457 45.1984 110.02 45.4181 111.629 45.6456C113.238 45.873 114.808 46.1622 116.348 46.5053C117.884 46.8523 119.265 47.338 120.487 47.9664C121.709 48.5948 122.688 49.4005 123.423 50.3875C124.158 51.3744 124.541 52.6081 124.572 54.0885C124.618 56.3553 124.011 58.1827 122.742 59.5744C121.473 60.9661 119.682 61.9762 117.361 62.6085C115.052 63.2446 112.379 63.5915 109.35 63.6532Z" fill="white"/>
<path d="M39.92 63.3988L29.209 32.8348H31.9902C33.4485 32.8348 34.7444 33.7639 35.2124 35.1402L41.5292 53.7878C41.6491 54.1425 41.7961 54.609 41.9741 55.1911C42.152 55.7694 42.3377 56.3708 42.5311 56.9915C42.7245 57.616 42.8792 58.1634 42.9991 58.6376H43.355C43.444 58.283 43.5484 57.8897 43.6683 57.4579C43.7883 57.03 43.9082 56.5905 44.0242 56.1472C44.1441 55.7038 44.2679 55.272 44.4033 54.8557C44.5387 54.4393 44.647 54.0846 44.736 53.7878L51.1185 32.8348H56.3096C57.2303 32.8348 58.0426 33.4323 58.3134 34.3113L64.2897 53.7878C64.4097 54.1425 64.5489 54.609 64.7153 55.1911C64.8777 55.7694 65.0479 56.3708 65.2297 56.9915C65.4077 57.616 65.543 58.1634 65.632 58.6376H65.9879C66.1078 58.283 66.2277 57.882 66.3438 57.4348C66.4637 56.9915 66.6029 56.5443 66.7693 56.1009C66.9317 55.6576 67.0749 55.2335 67.1948 54.8326C67.3147 54.4316 67.4346 54.0846 67.5507 53.7878L73.7823 35.2751C74.2736 33.8179 75.6429 32.8348 77.1863 32.8348H79.3796L68.6221 63.3988H62.4175L55.8106 42.2685C55.6907 41.9138 55.5515 41.455 55.3851 40.8883C55.2227 40.3254 55.0563 39.7394 54.8939 39.1303C54.7314 38.5212 54.5883 37.9815 54.4684 37.5073H54.155C54.0351 37.9815 53.8959 38.5251 53.7295 39.1303C53.5671 39.7394 53.4008 40.3254 53.2383 40.8883C53.0758 41.4512 52.9327 41.9099 52.8128 42.2685L46.2949 63.3988H39.92Z" fill="white"/>
<path d="M83.8398 63.3988V32.8348H86.4664C87.6771 32.8348 88.6596 33.814 88.6596 35.0207V63.395H83.8398V63.3988Z" fill="white"/>
<path d="M46.4501 79.9998V79.2459H44.1464V79.9998H43.5601V78.6595H43.937C44.0208 78.5339 44.1046 78.4501 44.1046 78.2825C44.1464 78.1569 44.1464 77.9894 44.1464 77.8218L44.3978 73.6333H46.6595V78.7014H47.0784V79.9998H46.4501ZM44.7747 77.8637C44.7747 78.0731 44.7328 78.2407 44.6909 78.3663C44.6491 78.492 44.6072 78.6176 44.4815 78.7014H45.9475V74.1778H44.9423L44.7747 77.8637Z" fill="white"/>
<path d="M52.0212 76.1045V76.649H50.639V78.6595H52.3144V79.2459H50.0107V73.6333H52.3144V74.2197H50.639V76.1464H52.0212V76.1045Z" fill="white"/>
<path d="M56.5036 74.1778L56.378 77.8218C56.378 78.0313 56.3361 78.2407 56.2942 78.4082C56.2523 78.5758 56.2105 78.7433 56.1267 78.8271C56.0429 78.9527 55.9173 79.0365 55.7916 79.1203C55.6659 79.204 55.4565 79.204 55.2471 79.204H55.1633V78.6176C55.289 78.6176 55.4146 78.6176 55.4565 78.5758C55.4984 78.5339 55.5822 78.492 55.6659 78.4082C55.7078 78.3244 55.7497 78.2407 55.7497 78.1569C55.7497 78.0731 55.7916 77.9475 55.7916 77.8218L55.9591 73.5915H58.2628V79.204H57.6345V74.1778H56.5036Z" fill="white"/>
<path d="M61.1924 74.9733C61.1924 74.5545 61.318 74.1775 61.5275 73.9262C61.7369 73.6749 62.072 73.5492 62.4908 73.5492C62.9097 73.5492 63.2447 73.6749 63.4542 73.9262C63.6636 74.1775 63.7892 74.5545 63.7892 74.9733V77.8634C63.7892 78.2822 63.6636 78.6173 63.4542 78.8686C63.2447 79.1199 62.9097 79.2456 62.4908 79.2456C62.072 79.2456 61.7369 79.1199 61.5275 78.8686C61.318 78.6173 61.1924 78.2822 61.1924 77.8634V74.9733ZM61.8207 77.9052C61.8207 78.1566 61.8625 78.366 61.9882 78.4916C62.1138 78.6173 62.2814 78.7011 62.4908 78.7011C62.7002 78.7011 62.9097 78.6173 62.9934 78.4916C63.0772 78.366 63.161 78.1566 63.161 77.9052V74.9314C63.161 74.6801 63.1191 74.4707 62.9934 74.345C62.8678 74.2194 62.7421 74.1356 62.4908 74.1356C62.2814 74.1356 62.1138 74.2194 61.9882 74.345C61.8625 74.4707 61.8207 74.6801 61.8207 74.9314V77.9052Z" fill="white"/>
<path d="M68.0203 73.6333C68.4392 73.6333 68.7743 73.7171 68.9418 73.9265C69.1093 74.1359 69.235 74.4291 69.235 74.848V75.0993C69.235 75.3925 69.1931 75.6438 69.1093 75.8113C69.0256 75.9789 68.858 76.1464 68.6067 76.1883C68.8999 76.2721 69.0674 76.3977 69.1931 76.6072C69.3188 76.8166 69.3606 77.0679 69.3606 77.403V77.9056C69.3606 78.3244 69.2769 78.6595 69.0674 78.8689C68.858 79.0784 68.5229 79.204 68.1041 79.204H66.8057V73.6333H68.0203ZM67.8947 75.9789C68.146 75.9789 68.3135 75.937 68.4392 75.8113C68.5648 75.7276 68.6486 75.5181 68.6486 75.225V74.9318C68.6486 74.6805 68.6067 74.5129 68.5229 74.3873C68.4392 74.2616 68.2716 74.2197 68.0622 74.2197H67.4339V76.0208H67.8947V75.9789ZM68.0622 78.6595C68.5229 78.6595 68.7324 78.4082 68.7324 77.9056V77.403C68.7324 77.0679 68.6486 76.8585 68.5648 76.7328C68.4392 76.6072 68.2297 76.5653 67.9784 76.5653H67.4339V78.6595H68.0622Z" fill="white"/>
<path d="M72.2916 74.9733C72.2916 74.5545 72.4173 74.1775 72.6267 73.9262C72.8361 73.6749 73.1712 73.5492 73.5901 73.5492C74.0089 73.5492 74.344 73.6749 74.5534 73.9262C74.7628 74.1775 74.8466 74.5545 74.8466 74.9733V77.8634C74.8466 78.2822 74.721 78.6173 74.5115 78.8686C74.3021 79.1199 73.967 79.2456 73.5482 79.2456C73.1293 79.2456 72.7943 79.1199 72.5848 78.8686C72.3754 78.6173 72.2498 78.2822 72.2498 77.8634V74.9733H72.2916ZM72.878 77.9052C72.878 78.1566 72.9199 78.366 73.0456 78.4916C73.1712 78.6173 73.3388 78.7011 73.5482 78.7011C73.7576 78.7011 73.967 78.6173 74.0508 78.4916C74.1346 78.366 74.2183 78.1566 74.2183 77.9052V74.9314C74.2183 74.6801 74.1765 74.4707 74.0508 74.345C73.9252 74.2194 73.7995 74.1356 73.5482 74.1356C73.3388 74.1356 73.1712 74.2194 73.0456 74.345C72.9199 74.4707 72.878 74.6801 72.878 74.9314V77.9052Z" fill="white"/>
<path d="M79.329 76.5654L78.4913 79.2042H77.863V73.6335H78.4075V77.822L78.952 76.1885L79.8316 73.6335H80.5437V79.2461H79.9992V74.7644L79.329 76.5654ZM80.0829 72.4607C80.0829 72.712 79.9992 72.8796 79.8735 73.0471C79.706 73.1728 79.4965 73.2565 79.2452 73.2565C78.952 73.2565 78.7426 73.1728 78.617 73.0471C78.4075 72.8796 78.3657 72.712 78.3238 72.4607H78.7426C78.7426 72.6283 78.7845 72.712 78.8683 72.7958C78.952 72.8377 79.0777 72.8796 79.2034 72.8796C79.329 72.8796 79.4547 72.8377 79.5384 72.7958C79.6222 72.7539 79.6641 72.6283 79.706 72.4607H80.0829Z" fill="white"/>
<path d="M89.6759 79.9579V79.204H87.2466V73.6333H87.8749V78.6595H89.2571V73.6333H89.8853V78.7014H90.3042V79.9998H89.6759V79.9579Z" fill="white"/>
<path d="M95.2458 76.1045V76.649H93.8636V78.6595H95.539V79.2459H93.2354V73.6333H95.539V74.2197H93.8636V76.1464H95.2458V76.1045Z" fill="white"/>
<path d="M99.1417 76.6909V79.204H98.5134V73.6333H99.1417V76.1464H100.524V73.6333H101.152V79.2459H100.524V76.7328H99.1417V76.6909Z" fill="white"/>
<path d="M105.045 79.204V74.1778H103.998V73.6333H106.679V74.2197H105.632V79.2459H105.045V79.204Z" fill="white"/>
<path d="M110.826 73.6333C111.287 73.6333 111.58 73.759 111.789 74.0103C111.999 74.2616 112.082 74.5967 112.082 75.0155V75.6857C112.082 76.1464 111.957 76.4815 111.747 76.6909C111.538 76.9003 111.203 77.026 110.742 77.026H110.198V79.2459H109.569V73.6333H110.826ZM110.742 76.4396C110.993 76.4396 111.161 76.3977 111.245 76.2721C111.328 76.1464 111.412 75.9789 111.412 75.6857V74.9736C111.412 74.7223 111.37 74.5129 111.245 74.3873C111.161 74.2616 110.993 74.1778 110.742 74.1778H110.156V76.4396H110.742Z" fill="white"/>
</svg>
